# xmcd
#
# Track frame offsets:
#	150
#	17905
#	35443
#	53187
#	72574
#	87488
#	99006
#	114293
#	129118
#	145409
#	161325
#	179267
#	197483
#	211553
#	226833
#	242350
#	253570
#	268045
#	286136
#	303351
#
# Disc length: 4248 seconds
#
# Revision: 1
# Processed by: cddbd v1.5.1PL0 Copyright (c) Steve Scherf et al.
# Submitted via: audiograbber 1.83.01
#
DISCID=02109614
DTITLE=Various Artist - RC34
DYEAR=1996
DGENRE=Country
TTITLE0=Shania Twain - (If You're Not In It For Love) I'm Outta Here
TTITLE1=Joe Diffie - Bigger Than The Beatles
TTITLE2=Alan Jackson - I'll Try
TTITLE3=Garth Brooks - The Beaches Of Cheyenne
TTITLE4=John Michael Montgomery - Cowboy Love
TTITLE5=David Lee Murphy - Out With A Bang
TTITLE6=Faith Hill - I Matters To Me
TTITLE7=Doug Supernaw - Not Enough Hours In The Night
TTITLE8=Martina McBride - Wild Angels
TTITLE9=Sawyer Brown - Round Here
TTITLE10=Ty Herndon ft. Stephanie Bentley - Heart Half Empty
TTITLE11=Reba McEntire - Ring On Her Finger Time On Her Hands
TTITLE12=Terri Clark - When Boy Meets Girl
TTITLE13=Blackhawk - Like There Ain't No Yesterday
TTITLE14=Tracy Lawrence - If You Loved Me
TTITLE15=Doug Stone - Born In The Dark
TTITLE16=George Strait - I Know She Still Loves Me
TTITLE17=Collin Raye - Not That Different
TTITLE18=Lee Roy Parnell - When A Woman Loves A Man
TTITLE19=Wade Hayes - What I Meant To Say
EXTD=
EXTT0=
EXTT1=
EXTT2=
EXTT3=
EXTT4=
EXTT5=
EXTT6=
EXTT7=
EXTT8=
EXTT9=
EXTT10=
EXTT11=
EXTT12=
EXTT13=
EXTT14=
EXTT15=
EXTT16=
EXTT17=
EXTT18=
EXTT19=
PLAYORDER=
